<?xml version="1.0" encoding="UTF-8" standalone="no"?>
<svg
   viewBox="0 0 114 114"
   version="1.1"
   id="svg543"
   sodipodi:docname="close-hover.svg"
   inkscape:version="1.2.2 (b0a8486541, 2022-12-01)"
   xmlns:inkscape="http://www.inkscape.org/namespaces/inkscape"
   xmlns:sodipodi="http://sodipodi.sourceforge.net/DTD/sodipodi-0.dtd"
   xmlns="http://www.w3.org/2000/svg"
   xmlns:svg="http://www.w3.org/2000/svg">
  <defs
     id="defs547" />
  <sodipodi:namedview
     id="namedview545"
     pagecolor="#505050"
     bordercolor="#eeeeee"
     borderopacity="1"
     inkscape:showpageshadow="0"
     inkscape:pageopacity="0"
     inkscape:pagecheckerboard="0"
     inkscape:deskcolor="#505050"
     showgrid="false"
     inkscape:zoom="7.6403509"
     inkscape:cx="-13.677382"
     inkscape:cy="57.458094"
     inkscape:window-width="1880"
     inkscape:window-height="1051"
     inkscape:window-x="40"
     inkscape:window-y="0"
     inkscape:window-maximized="1"
     inkscape:current-layer="svg543" />
  <path
     id="path3"
     style="color:#da4453;fill:#ff98a2;fill-opacity:1"
     class="ColorScheme-NegativeText"
     d="M 16 4 A 12 12 0 0 0 4 16 A 12 12 0 0 0 16 28 A 12 12 0 0 0 28 16 A 12 12 0 0 0 16 4 z M 10.613898 9.8947368 L 15.999589 15.280839 L 21.385691 9.8947368 C 21.385691 9.8947368 22.125201 10.623056 22.104852 10.613898 L 16.719161 16 L 22.104852 21.386102 C 22.104852 21.386102 21.391796 22.104232 21.385691 22.105263 L 15.999589 16.719161 L 10.613898 22.105263 C 10.614915 22.100175 9.8947368 21.386102 9.8947368 21.386102 L 15.280428 16 L 9.8947368 10.613898 C 9.9150871 10.614916 10.613898 9.8947368 10.613898 9.8947368 z "
     transform="matrix(4.75,0,0,4.75,-19,-19)" />
</svg>
