<?xml version="1.0" encoding="UTF-8" standalone="no"?>
<svg
   viewBox="0 0 114 114"
   version="1.1"
   id="svg4"
   sodipodi:docname="restore-hover.svg"
   inkscape:version="1.2.2 (b0a8486541, 2022-12-01)"
   xml:space="preserve"
   xmlns:inkscape="http://www.inkscape.org/namespaces/inkscape"
   xmlns:sodipodi="http://sodipodi.sourceforge.net/DTD/sodipodi-0.dtd"
   xmlns="http://www.w3.org/2000/svg"
   xmlns:svg="http://www.w3.org/2000/svg"><defs
     id="defs8" /><sodipodi:namedview
     id="namedview6"
     pagecolor="#505050"
     bordercolor="#eeeeee"
     borderopacity="1"
     inkscape:showpageshadow="0"
     inkscape:pageopacity="0"
     inkscape:pagecheckerboard="0"
     inkscape:deskcolor="#505050"
     showgrid="false"
     inkscape:zoom="4"
     inkscape:cx="-17.625"
     inkscape:cy="73"
     inkscape:window-width="1880"
     inkscape:window-height="1051"
     inkscape:window-x="40"
     inkscape:window-y="0"
     inkscape:window-maximized="1"
     inkscape:current-layer="svg4" /><path
     id="rect345"
     style="fill:#fcfcfc;fill-opacity:1;fill-rule:evenodd;stroke-width:0;stroke-linejoin:round;stroke-miterlimit:0;paint-order:markers fill stroke"
     d="M 56.439453 0.001953125 A 57 57 0 0 0 0.19335938 52.298828 A 57 57 0 0 0 52.298828 113.80664 A 57 57 0 0 0 113.80664 61.701172 A 57 57 0 0 0 61.701172 0.19335938 A 57 57 0 0 0 56.439453 0.001953125 z M 57 21.996094 L 92 56.996094 L 91.996094 57 L 92 57.003906 L 57 92.003906 L 22 57.003906 L 22.003906 57 L 22 56.996094 L 57 21.996094 z M 57 30.244141 L 30.246094 57 L 57 83.755859 L 83.753906 57 L 57 30.244141 z " /></svg>
