<?xml version="1.0" encoding="UTF-8" standalone="no"?>
<svg
   viewBox="0 0 22 22"
   version="1.1"
   id="svg8"
   sodipodi:docname="close.svg"
   inkscape:version="1.2.2 (b0a8486541, 2022-12-01)"
   xmlns:inkscape="http://www.inkscape.org/namespaces/inkscape"
   xmlns:sodipodi="http://sodipodi.sourceforge.net/DTD/sodipodi-0.dtd"
   xmlns="http://www.w3.org/2000/svg"
   xmlns:svg="http://www.w3.org/2000/svg">
  <defs
     id="defs12" />
  <sodipodi:namedview
     id="namedview10"
     pagecolor="#505050"
     bordercolor="#eeeeee"
     borderopacity="1"
     inkscape:showpageshadow="0"
     inkscape:pageopacity="0"
     inkscape:pagecheckerboard="0"
     inkscape:deskcolor="#505050"
     showgrid="false"
     inkscape:zoom="39.590909"
     inkscape:cx="10.633754"
     inkscape:cy="10.987371"
     inkscape:window-width="1880"
     inkscape:window-height="1051"
     inkscape:window-x="40"
     inkscape:window-y="0"
     inkscape:window-maximized="1"
     inkscape:current-layer="svg8" />
  <g
     transform="matrix(1.25,0,0,1.25,-529.89286,-659.98842)"
     id="g6">
    <circle
       cx="432.71429"
       cy="536.79071"
       r="6"
       style="fill:#ffffff"
       id="circle2" />
    <path
       d="m 432.71429,528.79074 a 8,8.00001 0 0 0 -8,8 8,8.00001 0 0 0 8,8 8,8.00001 0 0 0 8,-8 8,8.00001 0 0 0 -8,-8 m -3.29297,4 3.29297,3.29297 3.29297,-3.29297 0.70703,0.70703 -3.29297,3.29297 3.29297,3.29297 -0.70703,0.70703 -3.29297,-3.29297 -3.29297,3.29297 -0.70703,-0.70703 3.29297,-3.29297 -3.29297,-3.29297 0.70703,-0.70703"
       style="fill:#da4453"
       id="path4" />
  </g>
</svg>
