<?xml version="1.0" encoding="UTF-8" standalone="no"?>
<svg
   viewBox="0 0 16 16"
   version="1.1"
   id="svg6"
   sodipodi:docname="configure.svg"
   inkscape:version="1.2.2 (b0a8486541, 2022-12-01)"
   inkscape:export-filename="configure.png"
   inkscape:export-xdpi="96"
   inkscape:export-ydpi="96"
   xmlns:inkscape="http://www.inkscape.org/namespaces/inkscape"
   xmlns:sodipodi="http://sodipodi.sourceforge.net/DTD/sodipodi-0.dtd"
   xmlns="http://www.w3.org/2000/svg"
   xmlns:svg="http://www.w3.org/2000/svg">
  <sodipodi:namedview
     id="namedview8"
     pagecolor="#505050"
     bordercolor="#eeeeee"
     borderopacity="1"
     inkscape:showpageshadow="0"
     inkscape:pageopacity="0"
     inkscape:pagecheckerboard="0"
     inkscape:deskcolor="#505050"
     showgrid="false"
     inkscape:zoom="54.4375"
     inkscape:cx="4.3719862"
     inkscape:cy="8.0091848"
     inkscape:window-width="1880"
     inkscape:window-height="1051"
     inkscape:window-x="40"
     inkscape:window-y="0"
     inkscape:window-maximized="1"
     inkscape:current-layer="svg6" />
  <defs
     id="defs3051">
    <style
       type="text/css"
       id="current-color-scheme">
      .ColorScheme-Text {
        color:#eff0f1;
      }
      </style>
  </defs>
  <path
     style="fill:currentColor;fill-opacity:1;stroke:none;stroke-width:1.33333"
     d="m 10.666667,0.6666665 c -1.242641,0 -2.287383,0.8497343 -2.583334,2 H 0 v 1.3333333 h 8.083333 c 0.295951,1.1502658 1.340693,2 2.583334,2 1.242641,0 2.287382,-0.8497342 2.583333,-2 H 16 V 2.6666665 h -2.75 c -0.295951,-1.1502657 -1.340692,-2 -2.583333,-2 z M 4,9.9999995 C 2.7573588,9.9999995 1.7126168,10.849735 1.4166667,12 H 0 v 1.333334 h 1.4166667 c 0.2959501,1.150265 1.3406921,2 2.5833333,2 1.2426412,0 2.2873832,-0.849735 2.5833333,-2 H 6.6666667 9.333333 16 V 12 H 9.333333 6.6666667 6.5833333 C 6.2873832,10.849734 5.2426412,9.9999995 4,9.9999995 Z m 0,1.3333345 c 0.7363733,0 1.3333333,0.596959 1.3333333,1.333333 C 5.3333333,13.40304 4.7363733,14 4,14 3.2636267,14 2.6666667,13.40304 2.6666667,12.666667 c 0,-0.736374 0.59696,-1.333333 1.3333333,-1.333333 z"
     class="ColorScheme-Text"
     id="path4" />
</svg>
