<?xml version="1.0" encoding="UTF-8" standalone="no"?>
<svg
   viewBox="0 0 16 16"
   version="1.1"
   id="svg6"
   sodipodi:docname="edit-clear-history.svg"
   inkscape:version="1.2.2 (b0a8486541, 2022-12-01)"
   inkscape:export-filename="edit-clear-history.png"
   inkscape:export-xdpi="96"
   inkscape:export-ydpi="96"
   xmlns:inkscape="http://www.inkscape.org/namespaces/inkscape"
   xmlns:sodipodi="http://sodipodi.sourceforge.net/DTD/sodipodi-0.dtd"
   xmlns="http://www.w3.org/2000/svg"
   xmlns:svg="http://www.w3.org/2000/svg">
  <sodipodi:namedview
     id="namedview8"
     pagecolor="#505050"
     bordercolor="#eeeeee"
     borderopacity="1"
     inkscape:showpageshadow="0"
     inkscape:pageopacity="0"
     inkscape:pagecheckerboard="0"
     inkscape:deskcolor="#505050"
     showgrid="false"
     inkscape:zoom="54.4375"
     inkscape:cx="4.3444317"
     inkscape:cy="8.0091848"
     inkscape:window-width="1880"
     inkscape:window-height="1051"
     inkscape:window-x="40"
     inkscape:window-y="0"
     inkscape:window-maximized="1"
     inkscape:current-layer="svg6" />
  <defs
     id="defs3051">
    <style
       type="text/css"
       id="current-color-scheme">
      .ColorScheme-Text {
        color:#eff0f1;
      }
      </style>
  </defs>
  <path
     style="fill:currentColor;fill-opacity:1;stroke:none;stroke-width:1.33333"
     d="M 0.6666667,0 C 0.2984768,0 0,0.2984768 0,0.6666667 c 0,0.3681898 0.2984768,0.6666666 0.6666667,0.6666666 0.3681898,0 0.6666666,-0.2984768 0.6666666,-0.6666666 C 1.3333333,0.2984768 1.0348565,0 0.6666667,0 Z m 4,0 C 4.2984768,0 4,0.2984768 4,0.6666667 c 0,0.3681898 0.2984768,0.6666666 0.6666667,0.6666666 0.3681898,0 0.6666666,-0.2984768 0.6666666,-0.6666666 C 5.3333333,0.2984768 5.0348565,0 4.6666667,0 Z m 10.2135413,0 -4.5625,5.7473959 C 9.41702,5.4049541 8.281478,5.3099331 6.6666667,5.3333333 4.8589659,7.057442 3.6676796,7.6122655 0,8 V 9.333333 C 2.8182847,13.828923 4.6327684,16 9.333333,16 h 1.333334 c 1.431948,-1.845073 2.169492,-3.186441 2.666666,-5.333333 V 9.333333 C 12.744676,8.012523 12.210672,7.1128053 11.565104,6.5052083 L 16,0.8802083 Z M 2.6666667,2.6666667 C 1.9302871,2.6666667 1.3333333,3.2636204 1.3333333,4 c 0,0.7363796 0.5969538,1.3333333 1.3333334,1.3333333 C 3.4030463,5.3333333 4,4.7363796 4,4 4,3.2636204 3.4030463,2.6666667 2.6666667,2.6666667 Z M 7.3723959,6.8020833 C 10.176387,7.0207687 10.891447,8.021688 11.809896,10.265625 11.046125,12.327813 11.180537,12.803777 9.697917,14.625 5.5141229,14.259887 4.0703573,12.720717 1.7682292,9.106771 4.1631387,9.008998 5.4779032,8.139505 7.3723959,6.8020833 Z"
     class="ColorScheme-Text"
     id="path4" />
</svg>
