<?xml version="1.0" encoding="UTF-8" standalone="no"?>
<svg
   viewBox="0 0 16 16"
   version="1.1"
   id="svg188"
   sodipodi:docname="edit-cut.svg"
   inkscape:export-filename="edit-cut.png"
   inkscape:export-xdpi="96"
   inkscape:export-ydpi="96"
   inkscape:version="1.2.2 (b0a8486541, 2022-12-01)"
   xmlns:inkscape="http://www.inkscape.org/namespaces/inkscape"
   xmlns:sodipodi="http://sodipodi.sourceforge.net/DTD/sodipodi-0.dtd"
   xmlns="http://www.w3.org/2000/svg"
   xmlns:svg="http://www.w3.org/2000/svg">
  <sodipodi:namedview
     id="namedview190"
     pagecolor="#505050"
     bordercolor="#eeeeee"
     borderopacity="1"
     inkscape:showpageshadow="0"
     inkscape:pageopacity="0"
     inkscape:pagecheckerboard="0"
     inkscape:deskcolor="#505050"
     showgrid="false"
     inkscape:zoom="54.4375"
     inkscape:cx="6.1171068"
     inkscape:cy="5.0700344"
     inkscape:window-width="1880"
     inkscape:window-height="1051"
     inkscape:window-x="40"
     inkscape:window-y="0"
     inkscape:window-maximized="1"
     inkscape:current-layer="svg188" />
  <defs
     id="defs3051">
    <style
       type="text/css"
       id="current-color-scheme">
      .ColorScheme-Text {
        color:#eff0f1;
      }
      </style>
  </defs>
  <path
     style="fill:currentColor;fill-opacity:1;stroke:none;stroke-width:1.33333"
     d="m 4.0012992,0 c -0.5773334,1 -0.869,1 -0.2916667,2 l 3.5,6 -2,2.958333 c -0.3626667,-0.184 -0.775,-0.291666 -1.2083333,-0.291666 -1.4733334,0 -2.6666667,1.193333 -2.6666667,2.666666 0,1.473334 1.1933333,2.666667 2.6666667,2.666667 1.4733333,0 2.6666666,-1.193333 2.6666666,-2.666667 0,-0.54 -0.1823333,-1.038333 -0.4583333,-1.458333 -0.00667,-0.01067 0.00667,-0.03233 0,-0.04167 L 6.7929658,11 c 1.0693334,-0.03333 1.219,-0.790333 1.8749997,-0.791667 0.01467,0 0.027,-0.0013 0.04167,0 l 0.04167,0.08333 1.041666,1.541666 V 11.875 c -0.274666,0.42 -0.460937,0.918333 -0.460937,1.458333 0,1.473334 1.1933335,2.666667 2.6666665,2.666667 1.473333,0 2.666667,-1.193333 2.666667,-2.666667 0,-1.473333 -1.193333,-2.666666 -2.666666,-2.666666 -0.433334,0 -0.844396,0.107666 -1.20573,0.291666 L 8.7929715,8 c 0,0 3.5133345,-6.0106667 3.5000005,-6 0.577334,-1 0.283063,-1 -0.29427,-2 L 7.998695,6.8333333 Z M 7.998695,8 h 0.0026 c 0.3680005,0 0.6666665,0.298667 0.6666665,0.666667 0,0.338666 -0.256666,0.624 -0.5833332,0.666666 H 7.9179658 C 7.5912992,9.290667 7.3320284,9.005333 7.3320284,8.666667 7.3320284,8.298667 7.630695,8 7.998695,8 Z m -4,4 c 0.736,0 1.3333334,0.597333 1.3333334,1.333333 0,0.736 -0.5973334,1.333334 -1.3333334,1.333334 -0.736,0 -1.3333333,-0.597334 -1.3333333,-1.333334 C 2.6653617,12.597333 3.262695,12 3.998695,12 Z m 8.000001,0 c 0.736,0 1.333333,0.597333 1.333333,1.333333 0,0.736 -0.597334,1.333334 -1.333333,1.333334 -0.736,0 -1.333334,-0.597334 -1.333334,-1.333334 0,-0.736 0.597334,-1.333333 1.333334,-1.333333 z"
     class="ColorScheme-Text"
     id="path186" />
</svg>
