<?xml version="1.0" encoding="UTF-8" standalone="no"?>
<svg
   viewBox="0 0 16 16"
   version="1.1"
   id="svg6"
   sodipodi:docname="find.svg"
   inkscape:export-filename="find.png"
   inkscape:export-xdpi="96"
   inkscape:export-ydpi="96"
   inkscape:version="1.2.2 (b0a8486541, 2022-12-01)"
   xmlns:inkscape="http://www.inkscape.org/namespaces/inkscape"
   xmlns:sodipodi="http://sodipodi.sourceforge.net/DTD/sodipodi-0.dtd"
   xmlns="http://www.w3.org/2000/svg"
   xmlns:svg="http://www.w3.org/2000/svg">
  <sodipodi:namedview
     id="namedview8"
     pagecolor="#505050"
     bordercolor="#eeeeee"
     borderopacity="1"
     inkscape:showpageshadow="0"
     inkscape:pageopacity="0"
     inkscape:pagecheckerboard="0"
     inkscape:deskcolor="#505050"
     showgrid="false"
     inkscape:zoom="54.4375"
     inkscape:cx="6.1171068"
     inkscape:cy="8.0091848"
     inkscape:window-width="1880"
     inkscape:window-height="1051"
     inkscape:window-x="40"
     inkscape:window-y="0"
     inkscape:window-maximized="1"
     inkscape:current-layer="svg6" />
  <defs
     id="defs3051">
    <style
       type="text/css"
       id="current-color-scheme">
      .ColorScheme-Text {
        color:#f2f2f2;
      }
      </style>
  </defs>
  <path
     style="fill:currentColor;fill-opacity:1;stroke:none;stroke-width:1.33311"
     d="M 6,0 C 2.676,0 0,2.6791279 0,5.9980476 0,9.320966 2.68,11.996095 6,11.996095 c 1.4181909,0 2.701788,-0.508099 3.726563,-1.325089 L 15.057292,16 16,15.057599 10.669271,9.728604 C 11.490139,8.702564 12,7.4180361 12,5.9980476 12,2.6751292 9.32,0 6,0 Z m 0,1.3328994 c 2.585333,0 4.666667,2.0806562 4.666667,4.6651482 0,2.5844914 -2.081334,4.6651484 -4.666667,4.6651484 -2.5853333,0 -4.6666667,-2.080657 -4.6666667,-4.6651484 0,-2.584492 2.0813334,-4.6651482 4.6666667,-4.6651482 z"
     class="ColorScheme-Text"
     id="path4" />
</svg>
