<?xml version="1.0" encoding="UTF-8" standalone="no"?>
<svg
   viewBox="0 0 16 16"
   version="1.1"
   id="svg6"
   sodipodi:docname="history.svg"
   inkscape:export-filename="history.png"
   inkscape:export-xdpi="96"
   inkscape:export-ydpi="96"
   inkscape:version="1.2.2 (b0a8486541, 2022-12-01)"
   xmlns:inkscape="http://www.inkscape.org/namespaces/inkscape"
   xmlns:sodipodi="http://sodipodi.sourceforge.net/DTD/sodipodi-0.dtd"
   xmlns="http://www.w3.org/2000/svg"
   xmlns:svg="http://www.w3.org/2000/svg">
  <sodipodi:namedview
     id="namedview8"
     pagecolor="#505050"
     bordercolor="#eeeeee"
     borderopacity="1"
     inkscape:showpageshadow="0"
     inkscape:pageopacity="0"
     inkscape:pagecheckerboard="0"
     inkscape:deskcolor="#505050"
     showgrid="false"
     inkscape:zoom="54.4375"
     inkscape:cx="4.3352468"
     inkscape:cy="8.0091848"
     inkscape:window-width="1880"
     inkscape:window-height="1051"
     inkscape:window-x="40"
     inkscape:window-y="0"
     inkscape:window-maximized="1"
     inkscape:current-layer="svg6" />
  <defs
     id="defs3051">
    <style
       type="text/css"
       id="current-color-scheme">
      .ColorScheme-Text {
        color:#f2f2f2;
      }
      </style>
  </defs>
  <path
     style="fill:currentColor;fill-opacity:1;stroke:none;stroke-width:1.33333"
     d="M 8,0 C 3.581722,0 0,3.581722 0,8 c 0,4.418277 3.581722,8 8,8 4.418277,0 8,-3.581723 8,-8 C 16,3.581722 12.418277,0 8,0 Z m 0,1.3333333 c 3.681899,0 6.666667,2.9847684 6.666667,6.6666667 0,3.681899 -2.984768,6.666667 -6.666667,6.666667 C 4.3181017,14.666667 1.3333333,11.681899 1.3333333,8 1.3333333,4.3181017 4.3181017,1.3333333 8,1.3333333 Z M 6.6666667,2.6666667 V 8 9.333333 H 13.333333 V 8 H 8 V 2.6666667 Z"
     class="ColorScheme-Text"
     id="path4" />
</svg>
