<?xml version="1.0" encoding="UTF-8" standalone="no"?>
<svg
   viewBox="0 0 16 16"
   version="1.1"
   id="svg6"
   sodipodi:docname="process-stop.svg"
   inkscape:version="1.2.2 (b0a8486541, 2022-12-01)"
   xmlns:inkscape="http://www.inkscape.org/namespaces/inkscape"
   xmlns:sodipodi="http://sodipodi.sourceforge.net/DTD/sodipodi-0.dtd"
   xmlns="http://www.w3.org/2000/svg"
   xmlns:svg="http://www.w3.org/2000/svg">
  <sodipodi:namedview
     id="namedview8"
     pagecolor="#505050"
     bordercolor="#eeeeee"
     borderopacity="1"
     inkscape:showpageshadow="0"
     inkscape:pageopacity="0"
     inkscape:pagecheckerboard="0"
     inkscape:deskcolor="#505050"
     showgrid="false"
     inkscape:zoom="54.4375"
     inkscape:cx="6.1171068"
     inkscape:cy="8.0091848"
     inkscape:window-width="1880"
     inkscape:window-height="1051"
     inkscape:window-x="40"
     inkscape:window-y="0"
     inkscape:window-maximized="1"
     inkscape:current-layer="svg6" />
  <defs
     id="defs3051">
    <style
       type="text/css"
       id="current-color-scheme">
      .ColorScheme-Text {
        color:#eff0f1;
      }
      .ColorScheme-NegativeText {
        color:#da4453;
      }
      </style>
  </defs>
  <path
     style="fill:currentColor;fill-opacity:1;stroke:none;stroke-width:1.33333"
     class="ColorScheme-NegativeText"
     d="M 8,0 A 8,7.9999803 0 0 0 3.3697917,1.4843749 L 4.3281251,2.4427083 A 6.6666667,6.6666667 0 0 1 8,1.3333333 6.6666667,6.6666667 0 0 1 14.666667,8 6.6666667,6.6666667 0 0 1 13.557292,11.671875 l 0.955729,0.955729 A 8,7.9999803 0 0 0 16,8 8,7.9999803 0 0 0 8,0 Z M 1.4869792,3.3723959 A 8,7.9999803 0 0 0 0,8 8,7.9999803 0 0 0 8,16 8,7.9999803 0 0 0 12.630208,14.515625 L 11.671875,13.557292 A 6.6666667,6.6666667 0 0 1 8,14.666667 6.6666667,6.6666667 0 0 1 1.3333333,8 6.6666667,6.6666667 0 0 1 2.4427083,4.3281251 Z M 4,6.6666667 V 9.333333 h 8 V 6.6666667 Z"
     id="path4" />
</svg>
