<?xml version="1.0" encoding="UTF-8" standalone="no"?>
<svg
   viewBox="0 0 16 16"
   version="1.1"
   id="svg8"
   sodipodi:docname="user-group-delete.svg"
   inkscape:export-filename="user-group-delete.png"
   inkscape:export-xdpi="96"
   inkscape:export-ydpi="96"
   inkscape:version="1.2.2 (b0a8486541, 2022-12-01)"
   xmlns:inkscape="http://www.inkscape.org/namespaces/inkscape"
   xmlns:sodipodi="http://sodipodi.sourceforge.net/DTD/sodipodi-0.dtd"
   xmlns="http://www.w3.org/2000/svg"
   xmlns:svg="http://www.w3.org/2000/svg">
  <sodipodi:namedview
     id="namedview10"
     pagecolor="#505050"
     bordercolor="#eeeeee"
     borderopacity="1"
     inkscape:showpageshadow="0"
     inkscape:pageopacity="0"
     inkscape:pagecheckerboard="0"
     inkscape:deskcolor="#505050"
     showgrid="false"
     inkscape:zoom="54.4375"
     inkscape:cx="6.1171068"
     inkscape:cy="8.0091848"
     inkscape:window-width="1880"
     inkscape:window-height="1051"
     inkscape:window-x="40"
     inkscape:window-y="0"
     inkscape:window-maximized="1"
     inkscape:current-layer="svg8" />
  <defs
     id="defs3051">
    <style
       type="text/css"
       id="current-color-scheme">
      .ColorScheme-Text {
        color:#eff0f1;
      }
      .ColorScheme-NegativeText {
        color:#da4453;
      }
      </style>
  </defs>
  <g
     id="g295"
     transform="matrix(1.21673,0,0,1.21673,-2.4334598,-1.73384)">
    <path
       style="fill:currentColor;fill-opacity:1;stroke:none"
       d="M 5.5,4 A 2.5,2.5 0 0 0 3,6.5 2.5,2.5 0 0 0 5.5,9 2.5,2.5 0 0 0 8,6.5 2.5,2.5 0 0 0 5.5,4 m 0,6 A 3.499998,4 0 0 0 2,14 H 9 A 3.499998,4 0 0 0 5.5,10 m 0,1 a 2.5,3 0 0 1 2.353516,2 H 3.146 A 2.5,3 0 0 1 5.5,11"
       class="ColorScheme-Text"
       id="path4" />
    <path
       d="M 11.5,2 A 2.5,2.5 0 0 0 9,4.5 2.5,2.5 0 0 0 11.5,7 2.5,2.5 0 0 0 14,4.5 2.5,2.5 0 0 0 11.5,2 m 0.146484,6 A 3.499998,4 0 0 0 8.492188,10.273438 4.5,5 0 0 1 9.617188,12 H 15.15 A 3.499998,4 0 0 0 11.646484,8 m 0,1 A 2.5,3 0 0 1 14,11 H 9.293 a 2.5,3 0 0 1 2.353484,-2"
       style="fill:currentColor;fill-opacity:1;stroke:none"
       class="ColorScheme-NegativeText"
       id="path6" />
  </g>
</svg>
