<?xml version="1.0" encoding="UTF-8" standalone="no"?>
<svg
   version="1.1"
   viewBox="0 0 16 16"
   id="svg7"
   sodipodi:docname="view-refresh.svg"
   inkscape:version="1.2.2 (b0a8486541, 2022-12-01)"
   xmlns:inkscape="http://www.inkscape.org/namespaces/inkscape"
   xmlns:sodipodi="http://sodipodi.sourceforge.net/DTD/sodipodi-0.dtd"
   xmlns="http://www.w3.org/2000/svg"
   xmlns:svg="http://www.w3.org/2000/svg">
  <sodipodi:namedview
     id="namedview9"
     pagecolor="#505050"
     bordercolor="#eeeeee"
     borderopacity="1"
     inkscape:showpageshadow="0"
     inkscape:pageopacity="0"
     inkscape:pagecheckerboard="0"
     inkscape:deskcolor="#505050"
     showgrid="false"
     inkscape:zoom="54.4375"
     inkscape:cx="6.1171068"
     inkscape:cy="8.0091848"
     inkscape:window-width="1880"
     inkscape:window-height="1051"
     inkscape:window-x="40"
     inkscape:window-y="0"
     inkscape:window-maximized="1"
     inkscape:current-layer="svg7" />
  <defs
     id="defs3">
    <style
       type="text/css"
       id="current-color-scheme">.ColorScheme-Text {
        color:#eff0f1;
      }</style>
  </defs>
  <path
     class="ColorScheme-Text"
     fill="currentColor"
     d="m 16,8 c 0,1.478423 -0.425777,2.853428 -1.125,4.041667 L 11.291667,8.458333 12.25,7.5 14.416667,9.666667 C 14.484787,9.406213 14.546955,9.14685 14.583333,8.875 14.593723,8.80513 14.616913,8.737295 14.625003,8.666667 14.647763,8.442553 14.666673,8.230119 14.666673,8 c 0,-3.6818987 -2.984768,-6.6666667 -6.666667,-6.6666667 -0.324032,0 -0.6473443,0.037933 -0.9583333,0.083333 C 6.8600009,1.4432733 6.6765957,1.459048 6.5,1.5 6.1178913,1.5892667 5.7698347,1.722196 5.4166667,1.875 c -0.0409,0.017696 -0.084532,0.023168 -0.125,0.041667 -0.1222134,0.054615 -0.2177774,0.14434 -0.3333334,0.2083333 -0.010667,0.00593 -0.030733,-0.00577 -0.041667,0 l -0.9583334,-1 C 5.146572,0.4257773 6.521576,0 8,0 c 4.418279,0 8,3.581724 8,8 z m -3.958333,6.875 C 10.853428,15.574223 9.478424,16 8,16 3.5817213,16 0,12.418276 0,8 0,6.5215769 0.4257773,5.146572 1.125,3.9583333 l 1,1 L 4.6666667,7.5416667 3.75,8.458333 1.5833333,6.3333333 C 1.5152133,6.5937867 1.45304,6.8531497 1.4166667,7.125 1.4062667,7.1948747 1.3830933,7.2627049 1.375,7.3333333 1.35224,7.5574472 1.3333333,7.7698813 1.3333333,8 c 0,0.230119 0.018907,0.442553 0.041667,0.666667 0.02276,0.224113 0.038931,0.449674 0.083333,0.666666 C 2.0799747,12.37122 4.7783387,14.666667 8,14.666667 c 0.331017,0 0.640248,-0.03675 0.958333,-0.08333 0.181666,-0.0266 0.365071,-0.04239 0.541667,-0.08333 0.382109,-0.08927 0.730165,-0.222196 1.083333,-0.375 0.04096,-0.01732 0.08447,-0.02355 0.125,-0.04167 0.11848,-0.05416 0.219647,-0.144816 0.333334,-0.208333 h 0.04167 z"
     id="path5"
     style="stroke-width:1.33333" />
</svg>
