<?xml version="1.0" encoding="UTF-8" standalone="no"?>
<svg
   viewBox="0 0 16 16"
   version="1.1"
   id="svg6"
   sodipodi:docname="zoom-in.svg"
   inkscape:export-filename="zoom-in.png"
   inkscape:export-xdpi="96"
   inkscape:export-ydpi="96"
   inkscape:version="1.2.2 (b0a8486541, 2022-12-01)"
   xmlns:inkscape="http://www.inkscape.org/namespaces/inkscape"
   xmlns:sodipodi="http://sodipodi.sourceforge.net/DTD/sodipodi-0.dtd"
   xmlns="http://www.w3.org/2000/svg"
   xmlns:svg="http://www.w3.org/2000/svg">
  <sodipodi:namedview
     id="namedview8"
     pagecolor="#505050"
     bordercolor="#eeeeee"
     borderopacity="1"
     inkscape:showpageshadow="0"
     inkscape:pageopacity="0"
     inkscape:pagecheckerboard="0"
     inkscape:deskcolor="#505050"
     showgrid="false"
     inkscape:zoom="54.4375"
     inkscape:cx="6.1171068"
     inkscape:cy="8.0091848"
     inkscape:window-width="1880"
     inkscape:window-height="1051"
     inkscape:window-x="40"
     inkscape:window-y="0"
     inkscape:window-maximized="1"
     inkscape:current-layer="svg6" />
  <defs
     id="defs3051">
    <style
       type="text/css"
       id="current-color-scheme">
      .ColorScheme-Text {
        color:#eff0f1;
      }
      </style>
  </defs>
  <path
     style="fill:currentColor;fill-opacity:1;stroke:none;stroke-width:1.33333"
     d="M 0,0 V 1.3333333 2.6666667 H 1.3333333 V 1.3333333 H 2.6666667 V 0 H 1.3333333 Z M 6.6666667,0 V 1.3333333 H 9.333333 V 0 Z m 6.6666663,0 v 1.3333333 h 1.333334 V 2.6666667 H 16 V 1.3333333 0 H 14.666667 Z M 8,2.6666667 V 4 h 3.057292 L 6.6666667,8.390625 7.6093749,9.333333 12,4.9427083 V 8 h 1.333333 V 2.6666667 H 12 Z m -8,4 V 9.333333 H 1.3333333 V 6.6666667 Z m 14.666667,0 V 9.333333 H 16 V 6.6666667 Z M 0,10.666667 V 16 H 5.3333333 V 10.666667 Z M 1.3333333,12 H 4 v 2.666667 H 1.3333333 Z m 13.3333337,1.333333 v 1.333334 H 13.333333 V 16 H 14.666667 16 V 13.333333 Z M 6.6666667,14.666667 V 16 H 9.333333 v -1.333333 z"
     class="ColorScheme-Text"
     id="path4" />
</svg>
