<?xml version="1.0" encoding="UTF-8" standalone="no"?>
<svg
   viewBox="0 0 16 16"
   version="1.1"
   id="svg187"
   sodipodi:docname="zoom-out.svg"
   inkscape:version="1.2.2 (b0a8486541, 2022-12-01)"
   inkscape:export-filename="zoom-out.png"
   inkscape:export-xdpi="96"
   inkscape:export-ydpi="96"
   xmlns:inkscape="http://www.inkscape.org/namespaces/inkscape"
   xmlns:sodipodi="http://sodipodi.sourceforge.net/DTD/sodipodi-0.dtd"
   xmlns="http://www.w3.org/2000/svg"
   xmlns:svg="http://www.w3.org/2000/svg">
  <sodipodi:namedview
     id="namedview189"
     pagecolor="#505050"
     bordercolor="#eeeeee"
     borderopacity="1"
     inkscape:showpageshadow="0"
     inkscape:pageopacity="0"
     inkscape:pagecheckerboard="0"
     inkscape:deskcolor="#505050"
     showgrid="false"
     inkscape:zoom="54.4375"
     inkscape:cx="4.3444317"
     inkscape:cy="8.0091848"
     inkscape:window-width="1880"
     inkscape:window-height="1051"
     inkscape:window-x="40"
     inkscape:window-y="0"
     inkscape:window-maximized="1"
     inkscape:current-layer="svg187" />
  <defs
     id="defs3051">
    <style
       type="text/css"
       id="current-color-scheme">
      .ColorScheme-Text {
        color:#eff0f1;
      }
      </style>
  </defs>
  <path
     style="fill:currentColor;fill-opacity:1;stroke:none;stroke-width:1.33333"
     d="m 0,0 v 1.3333333 1.3333334 4 2.6666663 h 1.3333333 v -2.6666663 -4 -1.3333334 h 1.3333334 4 2.6666663 4 1.333334 v 1.3333334 4 2.6666663 4 1.333334 h -1.333334 -4 -2.6666663 V 16 h 2.6666663 4 1.333334 H 16 v -2.666667 -4 -2.6666663 -4 V 1.3333333 0 h -1.333333 -1.333334 -4 -2.6666663 -4 -1.3333334 z M 12.390625,2.6666667 8,7.0572917 V 4 H 6.6666667 V 9.333333 H 8 12 V 8 H 8.942708 L 13.333333,3.6093749 Z M 0,10.666667 V 16 H 5.3333333 V 10.666667 Z M 1.3333333,12 H 4 v 2.666667 H 1.3333333 Z"
     class="ColorScheme-Text"
     id="path185" />
</svg>
